# xmcd CD database file
#
# Track frame offsets:
#	150
#	22292
#	44545
#	69177
#	91007
#	115972
#
# Disc length: 1773 seconds
#
# Revision: 0
# Processed by: cddbd v1.5.1PL0 Copyright (c) Steve Scherf et al.
# Submitted via: CDex 1.51
#
DISCID=4906eb06
DTITLE=中川晃教 - 砂漠
DYEAR=2005
DGENRE=Vocal
TTITLE0=ユー アー ザ スーパースター
TTITLE1=Back together now
TTITLE2=I WILL GIVE U WHAT U WANT
TTITLE3=砂漠
TTITLE4=イッツ マジカル
TTITLE5=I'm gonna stay with you
EXTD=YEAR: 20050622
EXTT0=
EXTT1=
EXTT2=
EXTT3=
EXTT4=
EXTT5=
PLAYORDER=
